<svg width="800" height="600" viewBox="0 0 800 600" fill="none" xmlns="http://www.w3.org/2000/svg">
  <rect x="100" y="100" width="600" height="400" rx="20" fill="#EBF5FF" stroke="#1976D2" stroke-width="2"/>
  <rect x="130" y="150" width="540" height="60" rx="8" fill="white" stroke="#1976D2" stroke-width="2"/>
  <rect x="150" y="170" width="350" height="20" rx="4" fill="#BBDEFB"/>
  <rect x="130" y="230" width="540" height="60" rx="8" fill="white" stroke="#1976D2" stroke-width="2"/>
  <rect x="150" y="250" width="290" height="20" rx="4" fill="#BBDEFB"/>
  <rect x="130" y="310" width="540" height="60" rx="8" fill="white" stroke="#1976D2" stroke-width="2"/>
  <rect x="150" y="330" width="380" height="20" rx="4" fill="#BBDEFB"/>
  <rect x="130" y="390" width="540" height="60" rx="8" fill="white" stroke="#1976D2" stroke-width="2"/>
  <rect x="150" y="410" width="320" height="20" rx="4" fill="#BBDEFB"/>
  <circle cx="640" cy="170" r="15" fill="#1976D2"/>
  <circle cx="640" cy="250" r="15" fill="#1976D2"/>
  <circle cx="640" cy="330" r="15" fill="#1976D2"/>
  <circle cx="640" cy="410" r="15" fill="#1976D2"/>
  <path d="M635 165L640 170L645 165" stroke="white" stroke-width="2" stroke-linecap="round" stroke-linejoin="round"/>
  <path d="M635 175L640 170L645 175" stroke="white" stroke-width="2" stroke-linecap="round" stroke-linejoin="round"/>
  <path d="M635 245L640 250L645 245" stroke="white" stroke-width="2" stroke-linecap="round" stroke-linejoin="round"/>
  <path d="M635 255L640 250L645 255" stroke="white" stroke-width="2" stroke-linecap="round" stroke-linejoin="round"/>
  <path d="M635 325L640 330L645 325" stroke="white" stroke-width="2" stroke-linecap="round" stroke-linejoin="round"/>
  <path d="M635 335L640 330L645 335" stroke="white" stroke-width="2" stroke-linecap="round" stroke-linejoin="round"/>
  <path d="M635 405L640 410L645 405" stroke="white" stroke-width="2" stroke-linecap="round" stroke-linejoin="round"/>
  <path d="M635 415L640 410L645 415" stroke="white" stroke-width="2" stroke-linecap="round" stroke-linejoin="round"/>
</svg> 